<svg width="27.714844" height="30.814453" viewBox="0 0 27.7148 30.8145" fill="none" xmlns="http://www.w3.org/2000/svg" xmlns:xlink="http://www.w3.org/1999/xlink">
	<desc>
			Created with Pixso.
	</desc>
	<defs/>
	<path id="Vector" d="M0 15.35C0 11.43 0 7.5 0 3.58C0 -0.12 1.27 -0.87 4.45 0.93C11.53 4.95 18.6 8.97 25.68 13C25.8 13.06 25.91 13.13 26.02 13.19C28.25 14.52 28.28 16.24 26.07 17.55C24.19 18.66 22.31 19.76 20.42 20.83C14.99 23.9 9.56 26.96 4.13 30.01C3.67 30.26 3.21 30.52 2.72 30.68C1.53 31.08 0.52 30.53 0.21 29.33C0.07 28.79 0.01 28.21 0 27.66C-0.01 23.55 0 19.45 0 15.35Z" fill="#DEDEDD" fill-opacity="1.000000" fill-rule="evenodd"/>
	<path id="Vector" d="M1.01 1.76C1.01 10.9 1.01 19.87 1.01 28.69C5.51 24.22 10.04 19.73 14.51 15.29C10.12 10.89 5.66 6.42 1.01 1.76ZM2.23 0.72C2.22 0.78 2.2 0.84 2.18 0.9C6.67 5.38 11.15 9.85 15.51 14.2C16.7 13.02 18 11.74 19.35 10.41C13.67 7.19 7.95 3.96 2.23 0.72ZM19.35 20.36C17.98 18.99 16.7 17.7 15.57 16.57C11.14 20.98 6.67 25.44 2.2 29.9C2.22 29.95 2.24 30 2.25 30.05C7.97 26.81 13.68 23.57 19.35 20.36ZM16.2 15.13C17.78 16.7 19.22 18.13 20.7 19.59C22.35 18.65 24.15 17.67 25.9 16.61C27.08 15.9 27.14 14.96 26.03 14.27C24.37 13.23 22.65 12.28 20.93 11.35C20.71 11.23 20.23 11.28 20.05 11.45C18.71 12.68 17.41 13.96 16.2 15.13Z" fill="#202020" fill-opacity="1.000000" fill-rule="nonzero"/>
</svg>
