<svg width="23.820312" height="28.155273" viewBox="0 0 23.8203 28.1553" fill="none" xmlns="http://www.w3.org/2000/svg" xmlns:xlink="http://www.w3.org/1999/xlink">
	<desc>
			Created with Pixso.
	</desc>
	<defs/>
	<path id="Vector" d="M22.87 9.28C18.58 13.76 18.83 17.52 23.82 20.77C22.65 23.32 21.46 25.95 18.97 27.48C18.07 28.04 16.5 28.08 15.47 27.71C13.41 26.97 11.5 26.84 9.51 27.74C7.96 28.44 6.56 28.24 5.22 27.15C1.42 24.07 -0.98 16.38 0.38 11.7C1.45 8.04 5.63 4.58 10.15 7C11.85 7.91 13.41 7.48 15.06 6.81C18.28 5.49 20.83 6.34 22.87 9.28Z" fill="#202020" fill-opacity="1.000000" fill-rule="nonzero"/>
	<path id="Vector" d="M17.04 0C17.39 3.37 15.19 6.08 11.91 6.48C11.11 3.56 13.5 0.47 17.04 0Z" fill="#202020" fill-opacity="1.000000" fill-rule="nonzero"/>
</svg>
